/* XPM */
static char*Gflujod[]={
"22 22 2 1",
"# c #000000",
". c None",
"......................",
"......................",
".##############.......",
".#.............#......",
".#..............#.....",
".#...............#....",
".#................#...",
".#.................#..",
".#..................#.",
".#...................#",
"###..................#",
".#...................#",
".#..................#.",
".#.................#..",
".#................#...",
".#...............#....",
".#..............#.....",
".#.............#......",
".##############.......",
"......................",
"......................",
"......................"};
