/* XPM */
static char *hcurrent[]={
"22 22 3 1",
". c None",
"# c #000000",
"a c #303030",
"......................",
"......................",
"......................",
"......................",
"......................",
"......................",
"......................",
"....#############.....",
"....#...........#.....",
"....#........#..#.....",
".####.########a.####..",
"....#........a..#.....",
"....#...........#.....",
"....#############.....",
"......................",
"......................",
"......................",
"......................",
"......................",
"......................",
"......................",
"......................"};
