/* XPM */
static char*conectord_xpm[]={
"22 22 3 1",
"# c #000000",
"a c #ffffdd",
". c None",
"........#######.......",
"......##aaaaaaa##.....",
".....#aaa#####aaa#....",
"....#aab#aaaaa#baa#...",
"...#aabaaaaaaaaabaa#..",
"..#aabaaaaaaaaaaabaa#.",
"..#abaaaaaaaaaaaaaba#.",
".#aa#aaaaaaaaaaaaa#aa#",
".#a#aaaaaaaaaaaaaaa#a#",
".#a#aaaaaaaaaaaaaaa#a#",
".#a#aaaaaaaaaaaaaaa#a#",
".#a#aaaaaaaaaaaaaaa#a#",
".#a#aaaaaaaaaaaaaaa#a#",
".#aa#aaaaaaaaaaaaa#aa#",
"..#abaaaaaaaaaaaaaba#.",
"..#aabaaaaaaaaaaabaa#.",
"...#aabaaaaaaaaabaa#..",
"....#aab#aaaaa#baa#...",
".....#aaa#####aaa#....",
"......##aaaaaaa##.....",
"........#######.......",
"......................"};
