/* XPM */
static char *vcurrent_xpm[]={
"22 22 3 1",
". c None",
"# c #000000",
"a c #303030",
"......................",
"..........#...........",
"..........#...........",
"..........#...........",
".......#######........",
".......#.....#........",
".......#..a..#........",
".......#.aaa.#........",
".......#..a..#........",
".......#..a..#........",
".......#..a..#........",
".......#..a..#........",
".......#..a..#........",
".......#..a..#........",
".......#..a..#........",
".......#.....#........",
".......#######........",
"..........#...........",
"..........#...........",
"..........#...........",
"......................",
"......................"};
