/* XPM */
static char*gradosc[]={
"22 22 3 1",
"# c #000000",
"a c #ffff00",
". c None",
"......................",
"......................",
"..........##..........",
"..........##..........",
"..........##..........",
".####################.",
".#aaaaaaaaaaaaaaaaaa#.",
"..#aaaaaaaaaaaaaaaa#..",
"...#aaaaaa#aa#aaaa#...",
"....#aaaa#a#aaaaa#....",
".....#aaa#a#aaaa#.....",
"......#aa#a#aaa#......",
".......#aa#aaa#.......",
"........#aaaa#........",
".........#aa#.........",
"..........##..........",
"......................",
"......................",
"......................",
"......................",
"......................",
"......................"};
