/* XPM */
static char*acumulador[]={
"22 22 4 1",
"a c #00ff00",
"# c #000000",
"b c #ffff00",
". c None",
"......................",
".......#######........",
"....#############.....",
"..#####aaaaaaa#####...",
".###aaaaaaaaaaaaa###..",
".######aaaaaaa######..",
".##a############aa##..",
".##aaaa#######aaaa##..",
".##aaaaaaaaaaaaaaa##..",
".##aaaaaaaaaaaaaaa##..",
".##aaaaaaaaaaaaaaa##..",
".##aaaaaaaaaaaaaaa##..",
".##aaaaaaaaaaaaaaa##..",
".##aaaaaaaaaaaaaaa##..",
".##aaaaaaaaaaaaaaa##..",
".##aaaaaaaaaaaaaaa##..",
".###aaaaaaaaaaaaa###..",
"..#####aaaaaaa#####...",
"....#############.....",
".bbbbbbbbbbbbbbbbbbb..",
"...bbbbbbbbbbbbbbb....",
".......bbbbbbb........"};
