/* XPM */
static char*conector[]={
"22 22 3 1",
"# c #000000",
"a c #ffff00",
". c None",
"........#######.......",
"......##aaaaaaa##.....",
".....#aaaaaaaaaaa#....",
"....#aaaaaaaaaaaaa#...",
"...#aaaaaaaaaaaaaaa#..",
"..#aaaaaaaaaaaaaaaaa#.",
"..#aaaaaaaaaaaaaaaaa#.",
".#aaaaaaaaaaaaaaaaaaa#",
".#aaaaaaaaaaaaaaaaaaa#",
".#aaaaaaaaaaaaaaaaaaa#",
".#aaaaaaaaaaaaaaaaaaa#",
".#aaaaaaaaaaaaaaaaaaa#",
".#aaaaaaaaaaaaaaaaaaa#",
".#aaaaaaaaaaaaaaaaaaa#",
"..#aaaaaaaaaaaaaaaaa#.",
"..#aaaaaaaaaaaaaaaaa#.",
"...#aaaaaaaaaaaaaaa#..",
"....#aaaaaaaaaaaaa#...",
".....#aaaaaaaaaaa#....",
"......##aaaaaaa##.....",
"........#######.......",
"......................"};
