/* XPM */
static char*flujoi[]={
"22 22 4 1",
"# c #c3c3c3",
"b c #ffc0c0",
"a c #000000",
". c None",
"......................",
"......................",
"#######aaaaaaaaaaaaaaa",
"######aaaaaaaaaaaaaaaa",
"#####aaabbbbbbbbbbbbaa",
"####aaabbbbbbbbbbbbbaa",
"###aaabbbbbbbbbbbbbbaa",
"##aaabbbbbbbbbbbbbbbaa",
"#aaabbbbbbbbbbbbbbbbaa",
"aaabbbbbbbbbbbbbbbbbaa",
"aabbbbbbbbbbbbbbbbbbaa",
"aaabbbbbbbbbbbbbbbbbaa",
"#aaabbbbbbbbbbbbbbbbaa",
"##aaabbbbbbbbbbbbbbbaa",
"###aaabbbbbbbbbbbbbbaa",
"####aaabbbbbbbbbbbbbaa",
"#####aaabbbbbbbbbbbbaa",
"######aaaaaaaaaaaaaaaa",
"#######aaaaaaaaaaaaaaa",
"######################",
"######################",
"######################"};
