/* XPM */
static char*flujod[]={
"22 22 3 1",
"a c #ffc0c0",
"# c #000000",
". c None",
"......................",
"......................",
"##############........",
"################......",
"##aaaaaaaaaaaa###.....",
"##aaaaaaaaaaaaa###....",
"##aaaaaaaaaaaaaa###...",
"##aaaaaaaaaaaaaaa###..",
"##aaaaaaaaaaaaaaaa###.",
"##aaaaaaaaaaaaaaaaa###",
"##aaaaaaaaaaaaaaaaaa##",
"##aaaaaaaaaaaaaaaaa###",
"##aaaaaaaaaaaaaaaa###.",
"##aaaaaaaaaaaaaaa###..",
"##aaaaaaaaaaaaaa###...",
"##aaaaaaaaaaaaa###....",
"##aaaaaaaaaaaa###.....",
"################......",
"##############........",
"......................",
"......................",
"......................"};
