/* XPM */
static char*fuente[]={
"22 22 5 1",
"a c #a0a0a0",
"c c #c3c3c3",
"# c #000000",
"b c #ffff00",
". c None",
"......................",
".###################..",
".###################..",
".##aaaaaaaaaaaaaaa##..",
".##aaaaaaaaaaaaaaa##..",
"..##aaaaaaaaaaaaa##...",
"..##aaaaaaaaaaaaa##...",
"..##aaaaaaaaaaaaa##...",
"..##aaaaaaaaaaaaa##...",
"...##aaaaaaaaaaa##....",
"...##aaaaaaaaaaa##....",
"...##aaaaaaaaaaa##....",
"...##aaaaaaaaaaa##....",
"....##aaaaaaaaa##.....",
"....##aaaaaaaaa##.....",
"....##aaaaaaaaa##.....",
"....##aaaaaaaaa##.....",
".....##aaaaaaa##......",
".bbbbbbbbbbbbbbbbbbb..",
".....bbbbbbbbbbb......",
"........bbbb..........",
".........c............"};
