/* XPM */
static char*hconvectiva[]={
"22 22 5 1",
"b c #c3c3c3",
"c c #00ffff",
"# c #000000",
"a c #303030",
". c None",
"......................",
".##########a########bb",
".#ccccccccccccccccc#b.",
".#ccccccccccccccccc#b.",
".#ccccccccccccccccc#b.",
".#ccccccccccccccccc#b.",
".#ccccccccccccccccc#b.",
".#ccccccccccccccccc#b.",
".#ccccccccccccccccc#b.",
".#ccccccccccccccccc#b.",
"a#ccccccccccccccccc#a.",
".#ccccccccccccccccc#b.",
".#ccccccccccccccccc#b.",
".#ccccccccccccccccc#b.",
".#ccccccccccccccccc#b.",
".#ccccccccccccccccc#b.",
".#ccccccccccccccccc#b.",
".#ccccccccccccccccc#b.",
".#cccccccccccccccccab.",
".#ccccccccccccccccc#b.",
".###################b.",
"......................"};
