/* XPM */
static char*hconductiva[]={
"22 22 5 1",
"b c #c3c3c3",
"c c #00ffff",
"# c #000000",
"a c #303030",
". c None",
"......................",
".##########a########bb",
".#ccacccccccccccacc#b.",
".#ccacccccccccccacc#b.",
".#ccacccccccccccacc#b.",
".#ccacccccccccccacc#b.",
".#ccacccccccccccacc#b.",
".#ccacccccccccccacc#b.",
".#ccacccccccccccacc#b.",
".#ccacccccccccccacc#b.",
".#ccacccccccccccacc#b.",
"a#ccacccccccccccacc#a.",
".#ccacccccccccccacc#b.",
".#ccacccccccccccacc#b.",
".#ccacccccccccccacc#b.",
".#ccacccccccccccacc#b.",
".#ccacccccccccccacc#b.",
".#ccacccccccccccacc#b.",
".#ccacccccccccccaccab.",
".#ccacccccccccccacc#b.",
".###################b.",
"......................"};
