/* XPM */
static char*radiativa[]={
"22 22 5 1",
"# c #c3c3c3",
"c c #00ffff",
"a c #000000",
"b c #303030",
". c None",
"......................",
".#####################",
".ab#######b#######ba#.",
".acb#####bcb#####bca#.",
".accb###bcccb###bcca#.",
".acccb#bcccccb#bccca#.",
".accccbcccccccbcccca#.",
".accccccccccccccccca#.",
".accccccccccccccccca#.",
"#accccccccccccccccca#.",
"bacccccccccccccccccab.",
".accccccccccccccccca#.",
".accccccccccccccccca#.",
".accccccccccccccccca#.",
".accccccccccccccccca#.",
".accccbcccccccbcccca#.",
".acccb#bcbcccb#bccca#.",
".accb###bcccb###bcca#.",
".acb#####bcb#####bcb#.",
".ab#######b#######ba##",
".####################.",
"......................"};
