/* XPM */
static char*vconvectiva[]={
"22 22 5 1",
"b c #c3c3c3",
"c c #00ffff",
"a c #000000",
"# c #303030",
". c None",
"..........#...........",
".aaaaaaaaaa#aaaaaaaabb",
".acccccccccccccccccab.",
".acccccccccccccccccab.",
".acccccccccccccccccab.",
".acccccccccccccccccab.",
".acccccccccccccccccab.",
".acccccccccccccccccab.",
".acccccccccccccccccab.",
".acccccccccccccccccab.",
".acccccccccccccccccab.",
".acccccccccccccccccab.",
".acccccccccccccccccab.",
".acccccccccccccccccab.",
".acccccccccccccccccab.",
".acccccccccccccccccab.",
".acccccccccccccccccab.",
".acccccccccccccccccab.",
".accccccccccccccccc#b.",
".acccccccccccccccccab.",
".aaaaaaaaaaaaaaaaaaab.",
"..........#..........."};
